<svg width="77" height="89" viewBox="0 0 77 89" fill="none" xmlns="http://www.w3.org/2000/svg">
<g id="Group">
<path id="Vector" d="M19.4751 49.8827C21.8322 52.1247 24.1892 54.3668 26.5462 56.5514C29.7656 59.5983 32.985 62.7027 36.2043 65.7496C37.814 67.2443 39.4812 67.2443 41.0909 65.6921C46.3798 60.6906 51.6113 55.6316 56.9002 50.63C57.1877 50.4001 57.4176 50.1126 57.7051 49.8827C62.879 52.8721 67.0757 56.8388 70.2951 61.7828C74.4918 68.1641 76.6188 75.1777 76.5613 82.8237C76.5613 83.6285 76.5613 84.4909 76.5613 85.2957C76.5613 87.8252 75.4116 88.975 72.8821 88.975C56.8427 88.975 40.8034 88.975 24.7641 88.975C17.9229 88.975 11.0818 88.975 4.18314 88.975C1.82611 88.975 0.676335 87.7677 0.618846 85.4107C0.44638 79.5468 1.13624 73.8555 3.3783 68.394C6.65515 60.4606 12.0016 54.3093 19.4751 49.8827Z" fill="#555555"/>
<path id="Vector_2" d="M65.4661 13.5498C62.8216 14.1247 60.2346 14.6996 57.5326 15.2744C57.5326 15.6194 57.5326 15.9643 57.5326 16.3092C57.5326 20.5059 57.5326 24.7026 57.5326 28.8418C57.5326 34.1307 55.6355 38.6148 51.8988 42.2941C51.3814 42.8115 51.1514 43.3289 51.2089 44.0188C51.2664 44.9386 51.3239 45.9159 51.3239 46.8357C51.3239 47.0082 51.2089 47.2381 51.0939 47.4106C47.0122 51.3198 42.873 55.229 38.7913 59.1383C38.7339 59.1957 38.6764 59.1957 38.5614 59.2532C37.0092 57.816 35.457 56.3213 33.9623 54.8841C31.4328 52.4696 28.9033 50.0551 26.3738 47.6405C26.0289 47.2956 25.9139 47.0082 25.9714 46.4908C26.0864 45.456 26.0289 44.3637 25.9714 43.3289C25.9714 43.0414 25.7414 42.754 25.5115 42.524C21.5447 38.6148 19.5901 33.9008 19.6476 28.3244C19.7051 23.9552 19.6476 19.6436 19.6476 15.217C17.1756 14.6996 14.7611 14.1247 12.3466 13.6073C11.4267 13.3773 10.5069 13.2049 9.52962 12.9749C7.97743 12.63 7.00012 11.3652 7.00012 9.87051C7.00012 8.31832 8.03492 7.05357 9.58711 6.70864C18.9578 4.69653 28.3284 2.56946 37.7565 0.499865C38.4464 0.327399 39.2513 0.442376 39.9986 0.614842C49.1393 2.62694 58.28 4.69653 67.4207 6.70864C68.8004 6.99608 69.7777 7.74343 70.1227 9.12316C70.4676 10.4454 70.0077 11.4802 69.0304 12.4C68.8004 12.63 68.6854 13.0324 68.6854 13.3198C68.6279 15.9643 68.6279 18.6088 68.6854 21.2533C68.6854 21.5982 68.9154 22.0581 69.1454 22.3455C69.8352 23.0929 70.5826 23.7828 71.2724 24.5301C71.7898 25.0475 71.9623 25.6224 71.6749 26.3123C71.3874 27.0021 70.87 27.2896 70.1227 27.2896C68.0531 27.2896 66.041 27.2896 63.9714 27.2896C63.224 27.2896 62.7066 27.0021 62.4192 26.3123C62.1317 25.6224 62.3042 25.0475 62.8216 24.5301L62.8791 24.4726C65.1786 22.9204 65.811 20.7359 65.4661 18.0914C65.3511 16.6542 65.4661 15.1595 65.4661 13.5498Z" fill="#555555"/>
</g>
</svg>
