<svg width="29" height="29" viewBox="0 0 29 29" fill="none" xmlns="http://www.w3.org/2000/svg">
<g id="basil:binocular-solid">
<path id="Vector" fill-rule="evenodd" clip-rule="evenodd" d="M13.0933 6.88414C13.5063 7.23648 13.8691 7.65414 14.148 8.12198C14.4268 7.65414 14.7896 7.23648 15.2026 6.88414C16.1546 6.07214 17.4205 5.56348 18.6851 5.56348C19.5695 5.56348 20.5168 5.81314 21.3335 6.23548C22.1478 6.65664 22.8898 7.27964 23.2958 8.06948C23.3058 8.08882 23.3147 8.10868 23.3226 8.12898L25.8076 14.6623C26.2801 15.4404 26.5712 16.3149 26.6594 17.2209C26.7475 18.1269 26.6304 19.0411 26.3168 19.8957C26.0031 20.7502 25.5009 21.5231 24.8476 22.1569C24.1942 22.7908 23.4065 23.2693 22.5428 23.5569C21.6792 23.8445 20.7618 23.9338 19.8589 23.8183C18.956 23.7027 18.0907 23.3852 17.3273 22.8893C16.5639 22.3935 15.9221 21.732 15.4494 20.954C14.9768 20.1761 14.6854 19.3016 14.5971 18.3956H13.6988C13.6112 19.3023 13.3203 20.1776 12.8478 20.9563C12.3753 21.7351 11.7334 22.3974 10.9697 22.8939C10.2061 23.3904 9.34028 23.7084 8.43679 23.8242C7.53329 23.9401 6.6153 23.8508 5.75107 23.563C4.88684 23.2751 4.0986 22.7962 3.44495 22.1618C2.79129 21.5274 2.28904 20.7539 1.97552 19.8986C1.66201 19.0434 1.5453 18.1285 1.63408 17.2219C1.72285 16.3154 2.01482 15.4405 2.48828 14.6623L4.97328 8.12898C4.98116 8.10906 4.99012 8.08958 5.00012 8.07064C5.40728 7.27964 6.14812 6.65664 6.96128 6.23548C7.77912 5.81314 8.72645 5.56348 9.61078 5.56348C10.8755 5.56348 12.1413 6.07214 13.0933 6.88414ZM3.35628 17.8135C3.35628 16.6703 3.8104 15.574 4.61873 14.7657C5.42706 13.9573 6.52338 13.5032 7.66653 13.5032C8.80968 13.5032 9.90601 13.9573 10.7143 14.7657C11.5227 15.574 11.9768 16.6703 11.9768 17.8135C11.9768 18.9566 11.5227 20.053 10.7143 20.8613C9.90601 21.6696 8.80968 22.1237 7.66653 22.1237C6.52338 22.1237 5.42706 21.6696 4.61873 20.8613C3.8104 20.053 3.35628 18.9566 3.35628 17.8135ZM16.3191 17.8135C16.3191 16.6703 16.7732 15.574 17.5816 14.7657C18.3899 13.9573 19.4862 13.5032 20.6294 13.5032C21.7725 13.5032 22.8688 13.9573 23.6772 14.7657C24.4855 15.574 24.9396 16.6703 24.9396 17.8135C24.9396 18.9566 24.4855 20.053 23.6772 20.8613C22.8688 21.6696 21.7725 22.1237 20.6294 22.1237C19.4862 22.1237 18.3899 21.6696 17.5816 20.8613C16.7732 20.053 16.3191 18.9566 16.3191 17.8135Z" fill="white"/>
</g>
</svg>
