<svg width="29" height="29" viewBox="0 0 29 29" fill="none" xmlns="http://www.w3.org/2000/svg">
<g id="basil:binocular-solid">
<path id="Vector" fill-rule="evenodd" clip-rule="evenodd" d="M13.8982 6.62511C14.3112 6.97744 14.674 7.39511 14.9529 7.86294C15.2317 7.39511 15.5946 6.97744 16.0076 6.62511C16.9596 5.81311 18.2254 5.30444 19.4901 5.30444C20.3744 5.30444 21.3217 5.55411 22.1384 5.97644C22.9527 6.39761 23.6947 7.02061 24.1007 7.81044C24.1107 7.82979 24.1197 7.84965 24.1276 7.86994L26.6126 14.4033C27.085 15.1813 27.3762 16.0558 27.4643 16.9619C27.5525 17.8679 27.4353 18.7821 27.1217 19.6366C26.808 20.4912 26.3059 21.2641 25.6525 21.8979C24.9992 22.5317 24.2114 23.0102 23.3477 23.2978C22.4841 23.5855 21.5667 23.6748 20.6638 23.5592C19.7609 23.4437 18.8956 23.1262 18.1322 22.6303C17.3689 22.1344 16.727 21.473 16.2543 20.695C15.7817 19.917 15.4904 19.0426 15.4021 18.1366H14.5037C14.4161 19.0433 14.1252 19.9185 13.6527 20.6973C13.1803 21.4761 12.5383 22.1383 11.7747 22.6349C11.011 23.1314 10.1452 23.4494 9.24172 23.5652C8.33822 23.681 7.42023 23.5917 6.556 23.3039C5.69177 23.0161 4.90353 22.5372 4.24988 21.9028C3.59622 21.2684 3.09397 20.4948 2.78046 19.6396C2.46694 18.7844 2.35024 17.8695 2.43901 16.9629C2.52778 16.0563 2.81975 15.1815 3.29322 14.4033L5.77822 7.86994C5.78609 7.85002 5.79505 7.83055 5.80505 7.81161C6.21222 7.02061 6.95305 6.39761 7.76622 5.97644C8.58405 5.55411 9.53138 5.30444 10.4157 5.30444C11.6804 5.30444 12.9462 5.81311 13.8982 6.62511ZM4.16122 17.5544C4.16122 16.4113 4.61533 15.315 5.42366 14.5066C6.23199 13.6983 7.32832 13.2442 8.47147 13.2442C9.61462 13.2442 10.7109 13.6983 11.5193 14.5066C12.3276 15.315 12.7817 16.4113 12.7817 17.5544C12.7817 18.6976 12.3276 19.7939 11.5193 20.6022C10.7109 21.4106 9.61462 21.8647 8.47147 21.8647C7.32832 21.8647 6.23199 21.4106 5.42366 20.6022C4.61533 19.7939 4.16122 18.6976 4.16122 17.5544ZM17.1241 17.5544C17.1241 16.4113 17.5782 15.315 18.3865 14.5066C19.1948 13.6983 20.2912 13.2442 21.4343 13.2442C22.5775 13.2442 23.6738 13.6983 24.4821 14.5066C25.2904 15.315 25.7446 16.4113 25.7446 17.5544C25.7446 18.6976 25.2904 19.7939 24.4821 20.6022C23.6738 21.4106 22.5775 21.8647 21.4343 21.8647C20.2912 21.8647 19.1948 21.4106 18.3865 20.6022C17.5782 19.7939 17.1241 18.6976 17.1241 17.5544Z" fill="#2C2C2C"/>
</g>
</svg>
